<svg width="25" height="24" viewBox="0 0 25 24" fill="none" xmlns="http://www.w3.org/2000/svg">
<path fill-rule="evenodd" clip-rule="evenodd" d="M19.9697 14.5303C19.6768 14.2374 19.6768 13.7626 19.9697 13.4697L21.2626 12.1768C21.3602 12.0791 21.3602 11.9209 21.2626 11.8232L19.9697 10.5303C19.6768 10.2374 19.6768 9.76256 19.9697 9.46967C20.2626 9.17678 20.7374 9.17678 21.0303 9.46967L22.3232 10.7626C23.0066 11.446 23.0066 12.554 22.3232 13.2374L21.0303 14.5303C20.7374 14.8232 20.2626 14.8232 19.9697 14.5303Z" fill="#272755"/>
<path fill-rule="evenodd" clip-rule="evenodd" d="M1.75 8C1.75 5.37665 3.87665 3.25 6.5 3.25H14.5C17.1234 3.25 19.25 5.37665 19.25 8C19.25 8.41421 18.9142 8.75 18.5 8.75C18.0858 8.75 17.75 8.41421 17.75 8C17.75 6.20507 16.2949 4.75 14.5 4.75H9.96412C10.7616 5.59965 11.25 6.74279 11.25 8V16C11.25 17.2572 10.7616 18.4003 9.96412 19.25H14.5C16.2949 19.25 17.75 17.7949 17.75 16C17.75 15.5858 18.0858 15.25 18.5 15.25C18.9142 15.25 19.25 15.5858 19.25 16C19.25 18.6234 17.1234 20.75 14.5 20.75H6.5C3.87665 20.75 1.75 18.6234 1.75 16V8ZM6.5 19.25C8.29493 19.25 9.75 17.7949 9.75 16V8C9.75 6.20507 8.29493 4.75 6.5 4.75C4.70507 4.75 3.25 6.20507 3.25 8V16C3.25 17.7949 4.70507 19.25 6.5 19.25ZM12.75 12C12.75 11.5858 13.0858 11.25 13.5 11.25H21.5C21.9142 11.25 22.25 11.5858 22.25 12C22.25 12.4142 21.9142 12.75 21.5 12.75H13.5C13.0858 12.75 12.75 12.4142 12.75 12Z" fill="#272755"/>
</svg>
